<?xml version="1.0" encoding="UTF-8" standalone="no"?>
<!DOCTYPE svg PUBLIC "-//W3C//DTD SVG 1.1//EN" "http://www.w3.org/Graphics/SVG/1.1/DTD/svg11.dtd">
<svg width="100%" height="100%" viewBox="0 0 1476 1477" version="1.1" xmlns="http://www.w3.org/2000/svg" xmlns:xlink="http://www.w3.org/1999/xlink" xml:space="preserve" xmlns:serif="http://www.serif.com/" style="fill-rule:evenodd;clip-rule:evenodd;stroke-linecap:round;stroke-linejoin:round;stroke-miterlimit:1.5;">
    <g id="ArtBoard1" transform="matrix(0.982036,0,0,0.948601,-479.879202,-900.221926)">
        <rect x="488.657" y="949" width="1503" height="1556.437" style="fill:none;"/>
        <clipPath id="_clip1">
            <rect x="488.657" y="949" width="1503" height="1556.437"/>
        </clipPath>
        <g clip-path="url(#_clip1)">
            <g transform="matrix(0.990412,0,0,1.025321,-69.934734,-139.890713)">
                <circle cx="1323" cy="1821" r="759" style="fill:white;stroke:white;stroke-width:1.03px;"/>
            </g>
            <g transform="matrix(0.359006,0,0,0.37166,1240.379981,1727.218504)">
                <g transform="matrix(1,0,0,1,-1666.666667,-1666.666667)">
                    <g transform="matrix(138.888889,0,0,138.888889,0,0)">
                        <path d="M16.5,19C17.881,19 19,17.881 19,16.5C19,15.119 17.881,14 16.5,14C15.119,14 14,15.119 14,16.5C14,17.881 15.119,19 16.5,19ZM10,5L12,3M7.5,10C8.881,10 10,8.881 10,7.5C10,6.119 8.881,5 7.5,5C6.119,5 5,6.119 5,7.5C5,8.881 6.119,10 7.5,10ZM8,16L16,8M5.5,21C6.881,21 8,19.881 8,18.5C8,17.119 6.881,16 5.5,16C4.119,16 3,17.119 3,18.5C3,19.881 4.119,21 5.5,21ZM18.5,8C19.881,8 21,6.881 21,5.5C21,4.119 19.881,3 18.5,3C17.119,3 16,4.119 16,5.5C16,6.881 17.119,8 18.5,8ZM12,21L14,19" style="fill:none;fill-rule:nonzero;stroke:black;stroke-width:2px;stroke-miterlimit:4;"/>
                    </g>
                </g>
            </g>
        </g>
    </g>
</svg>
